P3
25
25
255
25 25 35  26 26 36  27 27 37  28 28 38  30 30 40  31 31 41  33 33 43  32 32 42  31 31 41  33 33 43  36 36 46  38 38 48  40 40 50  39 39 48  34 34 44  36 36 46  42 42 52  45 45 55  45 45 55  47 47 57  50 50 60  49 51 59  110 109 86  71 67 74  54 53 69  
24 24 34  25 25 35  26 26 36  27 27 37  29 29 39  31 31 41  31 31 41  31 31 41  31 31 41  33 33 43  33 33 43  33 33 43  35 35 45  35 35 45  31 31 41  38 38 48  42 42 52  43 43 53  44 44 54  47 47 57  47 47 57  91 87 69  127 118 101  93 86 81  75 73 72  
25 25 35  25 25 35  25 25 35  27 27 37  28 28 38  29 29 39  28 28 38  30 30 40  31 31 41  31 31 41  32 32 42  31 31 41  32 32 42  30 30 40  34 34 44  38 38 48  39 39 49  41 41 51  44 44 54  40 41 52  33 36 44  131 124 110  111 104 97  128 119 99  101 94 91  
26 26 36  26 26 36  23 23 33  26 26 36  27 27 37  26 26 36  25 25 35  26 26 36  29 29 39  30 30 40  31 31 41  30 30 40  29 29 39  32 32 42  34 36 46  35 38 47  40 40 50  39 39 48  37 37 47  34 33 43  29 34 40  123 114 103  81 78 78  140 132 121  96 94 93  
23 23 33  26 26 36  25 25 35  25 25 35  26 26 35  24 24 34  26 26 36  26 26 36  28 28 38  32 32 42  33 33 43  28 28 38  28 28 38  33 33 43  31 37 45  32 39 47  36 36 46  30 30 40  28 28 38  34 34 42  135 122 115  204 191 180  80 76 70  122 121 97  49 54 62  
21 21 31  23 23 33  25 25 35  21 21 31  22 22 32  23 23 33  24 24 34  24 24 34  26 26 36  27 27 37  30 30 40  28 28 38  28 30 40  28 32 41  32 34 44  30 33 42  24 28 37  24 27 35  37 39 45  165 158 152  177 161 149  107 103 100  36 39 51  44 46 56  52 55 66  
20 20 30  21 21 31  22 22 32  22 22 32  20 20 30  21 21 31  21 21 31  22 22 32  23 23 33  25 25 35  27 27 37  30 30 40  27 31 40  25 32 40  28 29 39  24 24 34  22 29 37  42 47 51  168 159 149  192 177 166  123 119 115  32 34 43  39 39 49  45 45 55  51 51 61  
20 20 30  20 20 30  22 22 32  20 20 30  20 20 30  20 20 30  20 20 30  22 22 32  22 22 32  25 25 35  25 25 35  26 26 36  26 26 36  23 24 33  20 23 32  25 28 37  43 48 50  170 158 145  218 207 196  129 122 122  31 32 41  34 34 44  41 41 51  46 46 56  47 47 57  
18 18 28  18 18 28  19 19 29  19 19 29  18 18 27  19 19 28  20 20 30  20 21 30  20 21 31  21 21 31  23 22 30  21 21 30  19 20 31  21 22 31  25 29 36  45 47 51  177 167 155  229 220 208  142 137 131  31 34 43  31 32 42  38 38 48  42 43 53  45 46 56  49 50 60  
18 18 28  16 16 26  15 15 25  14 15 22  14 15 20  15 15 23  16 16 26  12 17 21  30 29 31  90 82 73  92 78 68  89 78 68  74 70 61  24 28 32  45 50 49  164 155 140  225 215 202  151 145 138  32 32 42  28 31 40  29 36 44  33 40 48  36 43 51  42 49 57  45 52 61  
16 16 25  13 14 22  12 13 21  12 12 19  12 13 18  13 13 20  13 13 21  11 14 21  81 74 67  52 29 30  66 31 33  63 42 40  78 63 59  95 87 80  163 151 137  215 207 191  143 139 132  25 32 37  26 29 38  28 32 41  30 37 45  33 40 48  36 43 51  43 50 58  48 54 62  
15 16 21  12 13 18  11 12 17  11 12 17  11 12 17  12 13 18  12 13 18  14 15 17  79 71 62  69 41 37  76 39 34  66 41 38  92 77 70  167 154 138  194 184 163  133 130 122  23 30 38  21 28 36  22 29 37  26 33 41  29 36 44  32 39 47  38 45 53  42 49 57  45 51 59  
32 32 40  11 11 19  13 11 21  12 12 19  58 52 49  83 73 62  89 75 62  100 79 69  80 38 35  87 43 35  81 40 35  80 55 50  151 135 117  185 170 154  128 125 113  26 31 37  24 27 36  24 27 36  26 33 41  29 36 44  29 36 44  32 39 47  38 45 53  40 47 55  42 48 56  
33 33 43  21 21 30  67 60 55  93 76 68  99 63 56  104 40 27  129 58 38  134 59 43  132 60 41  137 56 36  110 45 30  83 56 47  140 127 109  183 180 161  73 72 68  22 28 36  24 24 34  26 27 37  27 34 42  28 35 43  29 36 44  32 39 47  38 45 53  40 47 55  43 50 58  
29 32 37  77 68 64  75 48 42  119 41 29  156 63 37  168 75 46  135 65 49  155 74 48  159 71 40  169 72 39  159 72 44  114 55 41  129 116 107  104 95 91  138 130 121  106 97 90  29 31 33  25 32 37  27 34 42  26 31 40  31 32 42  34 39 48  38 45 53  43 46 55  50 51 61  
51 49 47  68 50 46  99 32 25  110 51 31  137 62 37  135 61 40  175 77 41  174 74 36  176 74 36  180 83 44  165 75 42  153 115 99  69 62 59  118 97 91  72 38 32  71 53 49  63 66 64  24 33 36  25 32 40  28 32 40  34 34 44  37 42 50  37 45 53  45 46 56  50 50 60  
69 60 56  59 21 18  110 38 25  145 59 35  171 72 38  176 72 34  136 60 33  157 86 61  179 84 42  163 75 39  139 108 94  83 69 67  92 74 68  104 69 56  64 42 39  83 76 69  27 27 37  27 27 37  30 30 40  32 32 42  37 37 47  42 42 52  42 42 52  46 46 56  45 45 55  
80 69 66  62 21 19  112 38 23  148 58 31  149 59 31  153 60 30  143 62 31  107 69 56  161 94 67  144 94 70  105 89 82  62 46 49  115 94 83  80 67 58  65 61 56  21 22 27  27 27 37  27 27 37  28 28 38  32 32 42  35 35 45  41 41 51  42 42 52  42 42 52  41 41 51  
76 65 60  49 18 15  87 32 21  117 42 23  126 51 26  139 58 30  157 74 42  148 69 42  101 62 47  157 84 63  128 96 80  85 64 61  128 105 93  18 19 22  19 19 26  20 21 26  24 24 34  27 27 37  30 30 40  33 33 43  35 35 45  38 38 48  39 39 49  39 39 49  37 37 47  
68 58 54  33 15 16  58 21 17  86 32 21  124 88 71  147 87 57  143 62 33  149 60 32  158 63 30  178 76 39  111 61 49  144 92 74  79 60 50  15 20 23  18 20 25  20 21 26  23 23 33  28 28 38  30 30 40  33 33 43  36 36 46  35 35 45  35 35 45  36 36 46  38 38 48  
59 57 60  61 53 50  35 14 14  53 30 26  54 38 34  128 104 86  135 63 44  146 58 28  168 71 33  158 64 33  162 65 41  113 43 23  68 57 51  14 20 24  18 19 23  20 21 26  24 24 34  27 27 37  29 29 39  33 33 43  36 36 46  33 33 43  33 33 43  34 34 44  37 37 47  
55 57 63  71 67 66  42 36 33  48 32 34  58 34 31  67 42 39  110 51 36  135 53 28  160 62 25  112 56 42  118 44 29  71 37 33  58 53 50  16 19 23  19 20 25  22 23 28  25 26 33  25 25 33  28 28 38  32 32 42  31 31 41  31 31 41  32 32 42  33 33 43  37 37 47  
53 54 59  59 58 63  65 64 65  52 46 45  41 29 29  53 20 18  81 32 26  99 35 21  112 38 23  90 31 21  62 23 20  78 65 65  16 17 21  17 18 23  22 23 28  24 25 30  25 26 31  26 27 33  29 29 39  30 30 40  29 29 39  30 30 40  30 30 40  37 37 47  37 37 47  
43 43 48  57 57 63  60 61 66  72 69 68  68 60 57  33 19 19  38 17 19  50 23 20  49 21 18  59 45 41  74 67 63  29 27 30  17 17 28  19 19 29  21 21 27  22 23 28  23 24 29  27 27 33  30 30 40  28 28 38  27 27 37  28 28 38  31 31 41  35 35 45  41 41 51  
21 20 26  45 45 51  54 55 60  58 59 65  57 56 59  72 67 64  62 53 49  57 48 45  71 61 56  60 56 52  40 41 47  24 25 30  17 17 25  20 20 29  20 21 27  20 21 27  25 26 31  26 27 33  26 26 36  25 25 35  26 26 36  27 27 37  31 31 41  40 39 49  40 40 50  
